<mxfile host="app.diagrams.net" agent="Mozilla/5.0 (Windows NT 10.0; Win64; x64) AppleWebKit/537.36 (KHTML, like Gecko) Chrome/131.0.0.0 Safari/537.36" version="25.0.1">
  <diagram id="R2lEEEUBdFMjLlhIrx00" name="Page-1">
    <mxGraphModel dx="1730" dy="1568" grid="1" gridSize="10" guides="1" tooltips="1" connect="1" arrows="1" fold="1" page="1" pageScale="1" pageWidth="850" pageHeight="1100" math="0" shadow="0" extFonts="Permanent Marker^https://fonts.googleapis.com/css?family=Permanent+Marker">
      <root>
        <mxCell id="0" />
        <mxCell id="1" parent="0" />
        <mxCell id="9y5jWuPjXUD0zxBHvWIc-1" value="&lt;b&gt;&lt;font style=&quot;font-size: 14px;&quot;&gt;musician&lt;/font&gt;&lt;/b&gt;" style="rounded=0;whiteSpace=wrap;html=1;" vertex="1" parent="1">
          <mxGeometry x="140" y="50" width="120" height="60" as="geometry" />
        </mxCell>
        <mxCell id="9y5jWuPjXUD0zxBHvWIc-2" value="&lt;font style=&quot;font-size: 15px;&quot;&gt;&lt;b&gt;song&lt;/b&gt;&lt;/font&gt;" style="rounded=0;whiteSpace=wrap;html=1;" vertex="1" parent="1">
          <mxGeometry x="90" y="370" width="120" height="60" as="geometry" />
        </mxCell>
        <mxCell id="9y5jWuPjXUD0zxBHvWIc-3" value="&lt;b&gt;&lt;font style=&quot;font-size: 15px;&quot;&gt;instrument&lt;/font&gt;&lt;/b&gt;" style="rounded=0;whiteSpace=wrap;html=1;" vertex="1" parent="1">
          <mxGeometry x="510" y="50" width="120" height="60" as="geometry" />
        </mxCell>
        <mxCell id="9y5jWuPjXUD0zxBHvWIc-4" value="&lt;font style=&quot;font-size: 15px;&quot;&gt;&lt;b&gt;album&lt;/b&gt;&lt;/font&gt;" style="rounded=0;whiteSpace=wrap;html=1;" vertex="1" parent="1">
          <mxGeometry x="550" y="310" width="140" height="70" as="geometry" />
        </mxCell>
        <mxCell id="9y5jWuPjXUD0zxBHvWIc-5" value="play" style="rhombus;whiteSpace=wrap;html=1;" vertex="1" parent="1">
          <mxGeometry x="360" y="40" width="80" height="80" as="geometry" />
        </mxCell>
        <mxCell id="9y5jWuPjXUD0zxBHvWIc-6" value="perform" style="rhombus;whiteSpace=wrap;html=1;" vertex="1" parent="1">
          <mxGeometry x="360" y="180" width="80" height="80" as="geometry" />
        </mxCell>
        <mxCell id="9y5jWuPjXUD0zxBHvWIc-7" value="has" style="rhombus;whiteSpace=wrap;html=1;" vertex="1" parent="1">
          <mxGeometry x="360" y="320" width="80" height="80" as="geometry" />
        </mxCell>
        <mxCell id="9y5jWuPjXUD0zxBHvWIc-10" value="" style="endArrow=none;html=1;rounded=0;exitX=1;exitY=0.5;exitDx=0;exitDy=0;" edge="1" parent="1" source="9y5jWuPjXUD0zxBHvWIc-5">
          <mxGeometry width="50" height="50" relative="1" as="geometry">
            <mxPoint x="470" y="105" as="sourcePoint" />
            <mxPoint x="520" y="55" as="targetPoint" />
          </mxGeometry>
        </mxCell>
        <mxCell id="9y5jWuPjXUD0zxBHvWIc-69" value="M" style="edgeLabel;html=1;align=center;verticalAlign=middle;resizable=0;points=[];" vertex="1" connectable="0" parent="9y5jWuPjXUD0zxBHvWIc-10">
          <mxGeometry x="-0.2612" y="2" relative="1" as="geometry">
            <mxPoint as="offset" />
          </mxGeometry>
        </mxCell>
        <mxCell id="9y5jWuPjXUD0zxBHvWIc-11" value="" style="endArrow=none;html=1;rounded=0;entryX=0.088;entryY=0.413;entryDx=0;entryDy=0;entryPerimeter=0;" edge="1" parent="1" target="9y5jWuPjXUD0zxBHvWIc-5">
          <mxGeometry width="50" height="50" relative="1" as="geometry">
            <mxPoint x="250" y="110" as="sourcePoint" />
            <mxPoint x="300" y="60" as="targetPoint" />
          </mxGeometry>
        </mxCell>
        <mxCell id="9y5jWuPjXUD0zxBHvWIc-68" value="M" style="edgeLabel;html=1;align=center;verticalAlign=middle;resizable=0;points=[];" vertex="1" connectable="0" parent="9y5jWuPjXUD0zxBHvWIc-11">
          <mxGeometry x="0.3813" y="-1" relative="1" as="geometry">
            <mxPoint as="offset" />
          </mxGeometry>
        </mxCell>
        <mxCell id="9y5jWuPjXUD0zxBHvWIc-15" value="produce" style="rhombus;whiteSpace=wrap;html=1;" vertex="1" parent="1">
          <mxGeometry x="590" y="170" width="80" height="80" as="geometry" />
        </mxCell>
        <mxCell id="9y5jWuPjXUD0zxBHvWIc-17" value="" style="endArrow=none;html=1;rounded=0;exitX=0.586;exitY=0.029;exitDx=0;exitDy=0;exitPerimeter=0;entryX=0.5;entryY=1;entryDx=0;entryDy=0;" edge="1" parent="1" source="9y5jWuPjXUD0zxBHvWIc-4" target="9y5jWuPjXUD0zxBHvWIc-15">
          <mxGeometry width="50" height="50" relative="1" as="geometry">
            <mxPoint x="590" y="290" as="sourcePoint" />
            <mxPoint x="640" y="240" as="targetPoint" />
          </mxGeometry>
        </mxCell>
        <mxCell id="9y5jWuPjXUD0zxBHvWIc-64" value="M" style="edgeLabel;html=1;align=center;verticalAlign=middle;resizable=0;points=[];" vertex="1" connectable="0" parent="9y5jWuPjXUD0zxBHvWIc-17">
          <mxGeometry x="-0.2271" y="-2" relative="1" as="geometry">
            <mxPoint as="offset" />
          </mxGeometry>
        </mxCell>
        <mxCell id="9y5jWuPjXUD0zxBHvWIc-21" value="" style="shape=link;html=1;rounded=0;" edge="1" parent="1" source="9y5jWuPjXUD0zxBHvWIc-1">
          <mxGeometry relative="1" as="geometry">
            <mxPoint x="430" y="209.5" as="sourcePoint" />
            <mxPoint x="590" y="209.5" as="targetPoint" />
          </mxGeometry>
        </mxCell>
        <mxCell id="9y5jWuPjXUD0zxBHvWIc-22" value="1" style="resizable=0;html=1;whiteSpace=wrap;align=right;verticalAlign=bottom;" connectable="0" vertex="1" parent="9y5jWuPjXUD0zxBHvWIc-21">
          <mxGeometry x="1" relative="1" as="geometry" />
        </mxCell>
        <mxCell id="9y5jWuPjXUD0zxBHvWIc-28" value="ID NUM" style="ellipse;whiteSpace=wrap;html=1;align=center;" vertex="1" parent="1">
          <mxGeometry y="10" width="100" height="40" as="geometry" />
        </mxCell>
        <mxCell id="9y5jWuPjXUD0zxBHvWIc-29" value="name" style="ellipse;whiteSpace=wrap;html=1;align=center;fontStyle=4;" vertex="1" parent="1">
          <mxGeometry y="80" width="100" height="40" as="geometry" />
        </mxCell>
        <mxCell id="9y5jWuPjXUD0zxBHvWIc-30" value="phone" style="ellipse;whiteSpace=wrap;html=1;align=center;fontStyle=4;" vertex="1" parent="1">
          <mxGeometry x="-10" y="160" width="100" height="40" as="geometry" />
        </mxCell>
        <mxCell id="9y5jWuPjXUD0zxBHvWIc-31" value="" style="endArrow=none;html=1;rounded=0;entryX=0.075;entryY=0.95;entryDx=0;entryDy=0;entryPerimeter=0;" edge="1" parent="1" target="9y5jWuPjXUD0zxBHvWIc-1">
          <mxGeometry relative="1" as="geometry">
            <mxPoint x="90" y="179.5" as="sourcePoint" />
            <mxPoint x="250" y="179.5" as="targetPoint" />
          </mxGeometry>
        </mxCell>
        <mxCell id="9y5jWuPjXUD0zxBHvWIc-32" value="" style="endArrow=none;html=1;rounded=0;entryX=0;entryY=0.75;entryDx=0;entryDy=0;" edge="1" parent="1" target="9y5jWuPjXUD0zxBHvWIc-1">
          <mxGeometry relative="1" as="geometry">
            <mxPoint x="80" y="99.5" as="sourcePoint" />
            <mxPoint x="240" y="99.5" as="targetPoint" />
          </mxGeometry>
        </mxCell>
        <mxCell id="9y5jWuPjXUD0zxBHvWIc-33" value="" style="endArrow=none;html=1;rounded=0;entryX=0.25;entryY=0.167;entryDx=0;entryDy=0;entryPerimeter=0;" edge="1" parent="1" target="9y5jWuPjXUD0zxBHvWIc-1">
          <mxGeometry relative="1" as="geometry">
            <mxPoint x="80" y="29.5" as="sourcePoint" />
            <mxPoint x="240" y="29.5" as="targetPoint" />
          </mxGeometry>
        </mxCell>
        <mxCell id="9y5jWuPjXUD0zxBHvWIc-35" value="Address" style="ellipse;whiteSpace=wrap;html=1;align=center;" vertex="1" parent="1">
          <mxGeometry x="150" y="170" width="100" height="40" as="geometry" />
        </mxCell>
        <mxCell id="9y5jWuPjXUD0zxBHvWIc-36" value="" style="endArrow=none;html=1;rounded=0;entryX=0.5;entryY=1;entryDx=0;entryDy=0;" edge="1" parent="1" target="9y5jWuPjXUD0zxBHvWIc-1">
          <mxGeometry relative="1" as="geometry">
            <mxPoint x="200" y="170" as="sourcePoint" />
            <mxPoint x="360" y="170" as="targetPoint" />
          </mxGeometry>
        </mxCell>
        <mxCell id="9y5jWuPjXUD0zxBHvWIc-37" value="street" style="ellipse;whiteSpace=wrap;html=1;align=center;" vertex="1" parent="1">
          <mxGeometry x="90" y="240" width="80" height="30" as="geometry" />
        </mxCell>
        <mxCell id="9y5jWuPjXUD0zxBHvWIc-38" value="city" style="ellipse;whiteSpace=wrap;html=1;align=center;" vertex="1" parent="1">
          <mxGeometry x="210" y="240" width="70" height="35" as="geometry" />
        </mxCell>
        <mxCell id="9y5jWuPjXUD0zxBHvWIc-39" value="" style="endArrow=none;html=1;rounded=0;" edge="1" parent="1" target="9y5jWuPjXUD0zxBHvWIc-35">
          <mxGeometry relative="1" as="geometry">
            <mxPoint x="130" y="240" as="sourcePoint" />
            <mxPoint x="270" y="239" as="targetPoint" />
            <Array as="points">
              <mxPoint x="130" y="240" />
            </Array>
          </mxGeometry>
        </mxCell>
        <mxCell id="9y5jWuPjXUD0zxBHvWIc-40" value="" style="endArrow=none;html=1;rounded=0;entryX=0.72;entryY=0.95;entryDx=0;entryDy=0;entryPerimeter=0;" edge="1" parent="1" source="9y5jWuPjXUD0zxBHvWIc-38" target="9y5jWuPjXUD0zxBHvWIc-35">
          <mxGeometry relative="1" as="geometry">
            <mxPoint x="340" y="350" as="sourcePoint" />
            <mxPoint x="500" y="350" as="targetPoint" />
          </mxGeometry>
        </mxCell>
        <mxCell id="9y5jWuPjXUD0zxBHvWIc-41" value="author" style="ellipse;whiteSpace=wrap;html=1;align=center;fontStyle=4;" vertex="1" parent="1">
          <mxGeometry x="160" y="490" width="100" height="40" as="geometry" />
        </mxCell>
        <mxCell id="9y5jWuPjXUD0zxBHvWIc-42" value="ttle" style="ellipse;whiteSpace=wrap;html=1;align=center;fontStyle=4;" vertex="1" parent="1">
          <mxGeometry x="30" y="480" width="100" height="40" as="geometry" />
        </mxCell>
        <mxCell id="9y5jWuPjXUD0zxBHvWIc-43" value="" style="endArrow=none;html=1;rounded=0;entryX=0.23;entryY=0.15;entryDx=0;entryDy=0;entryPerimeter=0;" edge="1" parent="1" source="9y5jWuPjXUD0zxBHvWIc-2" target="9y5jWuPjXUD0zxBHvWIc-41">
          <mxGeometry relative="1" as="geometry">
            <mxPoint x="190" y="450" as="sourcePoint" />
            <mxPoint x="500" y="490" as="targetPoint" />
            <Array as="points" />
          </mxGeometry>
        </mxCell>
        <mxCell id="9y5jWuPjXUD0zxBHvWIc-44" value="" style="endArrow=none;html=1;rounded=0;entryX=0.392;entryY=0.983;entryDx=0;entryDy=0;entryPerimeter=0;" edge="1" parent="1" source="9y5jWuPjXUD0zxBHvWIc-42" target="9y5jWuPjXUD0zxBHvWIc-2">
          <mxGeometry relative="1" as="geometry">
            <mxPoint x="340" y="490" as="sourcePoint" />
            <mxPoint x="500" y="490" as="targetPoint" />
          </mxGeometry>
        </mxCell>
        <mxCell id="9y5jWuPjXUD0zxBHvWIc-45" value="title" style="ellipse;whiteSpace=wrap;html=1;align=center;fontStyle=4;" vertex="1" parent="1">
          <mxGeometry x="680" y="460" width="100" height="40" as="geometry" />
        </mxCell>
        <mxCell id="9y5jWuPjXUD0zxBHvWIc-46" value="ID" style="ellipse;whiteSpace=wrap;html=1;align=center;fontStyle=4;" vertex="1" parent="1">
          <mxGeometry x="540" y="470" width="100" height="40" as="geometry" />
        </mxCell>
        <mxCell id="9y5jWuPjXUD0zxBHvWIc-47" value="copyright date" style="ellipse;whiteSpace=wrap;html=1;align=center;fontStyle=4;" vertex="1" parent="1">
          <mxGeometry x="750" y="320" width="100" height="40" as="geometry" />
        </mxCell>
        <mxCell id="9y5jWuPjXUD0zxBHvWIc-48" value="" style="endArrow=none;html=1;rounded=0;entryX=0.1;entryY=0.5;entryDx=0;entryDy=0;entryPerimeter=0;exitX=0.993;exitY=0.9;exitDx=0;exitDy=0;exitPerimeter=0;" edge="1" parent="1" source="9y5jWuPjXUD0zxBHvWIc-4" target="9y5jWuPjXUD0zxBHvWIc-47">
          <mxGeometry relative="1" as="geometry">
            <mxPoint x="340" y="300" as="sourcePoint" />
            <mxPoint x="500" y="300" as="targetPoint" />
          </mxGeometry>
        </mxCell>
        <mxCell id="9y5jWuPjXUD0zxBHvWIc-49" value="" style="endArrow=none;html=1;rounded=0;entryX=0.329;entryY=1.014;entryDx=0;entryDy=0;entryPerimeter=0;exitX=0.6;exitY=0.025;exitDx=0;exitDy=0;exitPerimeter=0;" edge="1" parent="1" source="9y5jWuPjXUD0zxBHvWIc-46" target="9y5jWuPjXUD0zxBHvWIc-4">
          <mxGeometry relative="1" as="geometry">
            <mxPoint x="340" y="300" as="sourcePoint" />
            <mxPoint x="500" y="300" as="targetPoint" />
          </mxGeometry>
        </mxCell>
        <mxCell id="9y5jWuPjXUD0zxBHvWIc-50" value="" style="endArrow=none;html=1;rounded=0;entryX=0.85;entryY=1;entryDx=0;entryDy=0;entryPerimeter=0;exitX=0.3;exitY=0;exitDx=0;exitDy=0;exitPerimeter=0;" edge="1" parent="1" source="9y5jWuPjXUD0zxBHvWIc-45" target="9y5jWuPjXUD0zxBHvWIc-4">
          <mxGeometry relative="1" as="geometry">
            <mxPoint x="340" y="300" as="sourcePoint" />
            <mxPoint x="500" y="300" as="targetPoint" />
          </mxGeometry>
        </mxCell>
        <mxCell id="9y5jWuPjXUD0zxBHvWIc-51" value="Name" style="ellipse;whiteSpace=wrap;html=1;align=center;fontStyle=4;" vertex="1" parent="1">
          <mxGeometry x="700" y="60" width="100" height="40" as="geometry" />
        </mxCell>
        <mxCell id="9y5jWuPjXUD0zxBHvWIc-52" value="M.key" style="ellipse;whiteSpace=wrap;html=1;align=center;fontStyle=4;" vertex="1" parent="1">
          <mxGeometry x="690" y="130" width="100" height="40" as="geometry" />
        </mxCell>
        <mxCell id="9y5jWuPjXUD0zxBHvWIc-54" value="" style="endArrow=none;html=1;rounded=0;entryX=0;entryY=0.5;entryDx=0;entryDy=0;exitX=1;exitY=0.5;exitDx=0;exitDy=0;" edge="1" parent="1" source="9y5jWuPjXUD0zxBHvWIc-3" target="9y5jWuPjXUD0zxBHvWIc-51">
          <mxGeometry relative="1" as="geometry">
            <mxPoint x="640" y="80" as="sourcePoint" />
            <mxPoint x="730" y="80" as="targetPoint" />
          </mxGeometry>
        </mxCell>
        <mxCell id="9y5jWuPjXUD0zxBHvWIc-55" value="" style="endArrow=none;html=1;rounded=0;entryX=0.925;entryY=1;entryDx=0;entryDy=0;entryPerimeter=0;exitX=0;exitY=0.5;exitDx=0;exitDy=0;" edge="1" parent="1" source="9y5jWuPjXUD0zxBHvWIc-52" target="9y5jWuPjXUD0zxBHvWIc-3">
          <mxGeometry relative="1" as="geometry">
            <mxPoint x="340" y="180" as="sourcePoint" />
            <mxPoint x="500" y="180" as="targetPoint" />
          </mxGeometry>
        </mxCell>
        <mxCell id="9y5jWuPjXUD0zxBHvWIc-56" value="" style="endArrow=none;html=1;rounded=0;entryX=0.021;entryY=0.357;entryDx=0;entryDy=0;entryPerimeter=0;exitX=1;exitY=0.5;exitDx=0;exitDy=0;" edge="1" parent="1" source="9y5jWuPjXUD0zxBHvWIc-7" target="9y5jWuPjXUD0zxBHvWIc-4">
          <mxGeometry relative="1" as="geometry">
            <mxPoint x="340" y="230" as="sourcePoint" />
            <mxPoint x="500" y="230" as="targetPoint" />
          </mxGeometry>
        </mxCell>
        <mxCell id="9y5jWuPjXUD0zxBHvWIc-57" value="1" style="resizable=0;html=1;whiteSpace=wrap;align=right;verticalAlign=bottom;" connectable="0" vertex="1" parent="9y5jWuPjXUD0zxBHvWIc-56">
          <mxGeometry x="1" relative="1" as="geometry" />
        </mxCell>
        <mxCell id="9y5jWuPjXUD0zxBHvWIc-58" value="" style="shape=link;html=1;rounded=0;entryX=0.038;entryY=0.613;entryDx=0;entryDy=0;entryPerimeter=0;" edge="1" parent="1" target="9y5jWuPjXUD0zxBHvWIc-7">
          <mxGeometry relative="1" as="geometry">
            <mxPoint x="210" y="400" as="sourcePoint" />
            <mxPoint x="370" y="400" as="targetPoint" />
          </mxGeometry>
        </mxCell>
        <mxCell id="9y5jWuPjXUD0zxBHvWIc-59" value="M" style="resizable=0;html=1;whiteSpace=wrap;align=left;verticalAlign=bottom;" connectable="0" vertex="1" parent="9y5jWuPjXUD0zxBHvWIc-58">
          <mxGeometry x="-1" relative="1" as="geometry" />
        </mxCell>
        <mxCell id="9y5jWuPjXUD0zxBHvWIc-60" value="N" style="resizable=0;html=1;whiteSpace=wrap;align=right;verticalAlign=bottom;" connectable="0" vertex="1" parent="9y5jWuPjXUD0zxBHvWIc-58">
          <mxGeometry x="1" relative="1" as="geometry" />
        </mxCell>
        <mxCell id="9y5jWuPjXUD0zxBHvWIc-61" value="" style="endArrow=none;html=1;rounded=0;exitX=1;exitY=0;exitDx=0;exitDy=0;entryX=0.5;entryY=1;entryDx=0;entryDy=0;" edge="1" parent="1" source="9y5jWuPjXUD0zxBHvWIc-2" target="9y5jWuPjXUD0zxBHvWIc-6">
          <mxGeometry relative="1" as="geometry">
            <mxPoint x="340" y="270" as="sourcePoint" />
            <mxPoint x="500" y="270" as="targetPoint" />
          </mxGeometry>
        </mxCell>
        <mxCell id="9y5jWuPjXUD0zxBHvWIc-62" value="M" style="resizable=0;html=1;whiteSpace=wrap;align=left;verticalAlign=bottom;" connectable="0" vertex="1" parent="9y5jWuPjXUD0zxBHvWIc-61">
          <mxGeometry x="-1" relative="1" as="geometry" />
        </mxCell>
        <mxCell id="9y5jWuPjXUD0zxBHvWIc-63" value="N" style="resizable=0;html=1;whiteSpace=wrap;align=right;verticalAlign=bottom;" connectable="0" vertex="1" parent="9y5jWuPjXUD0zxBHvWIc-61">
          <mxGeometry x="1" relative="1" as="geometry" />
        </mxCell>
        <mxCell id="9y5jWuPjXUD0zxBHvWIc-65" value="" style="shape=link;html=1;rounded=0;entryX=0.05;entryY=0.425;entryDx=0;entryDy=0;entryPerimeter=0;exitX=0.85;exitY=1.033;exitDx=0;exitDy=0;exitPerimeter=0;" edge="1" parent="1" source="9y5jWuPjXUD0zxBHvWIc-1" target="9y5jWuPjXUD0zxBHvWIc-6">
          <mxGeometry relative="1" as="geometry">
            <mxPoint x="250" y="149.5" as="sourcePoint" />
            <mxPoint x="410" y="149.5" as="targetPoint" />
          </mxGeometry>
        </mxCell>
        <mxCell id="9y5jWuPjXUD0zxBHvWIc-66" value="M" style="resizable=0;html=1;whiteSpace=wrap;align=left;verticalAlign=bottom;" connectable="0" vertex="1" parent="9y5jWuPjXUD0zxBHvWIc-65">
          <mxGeometry x="-1" relative="1" as="geometry" />
        </mxCell>
        <mxCell id="9y5jWuPjXUD0zxBHvWIc-67" value="N" style="resizable=0;html=1;whiteSpace=wrap;align=right;verticalAlign=bottom;" connectable="0" vertex="1" parent="9y5jWuPjXUD0zxBHvWIc-65">
          <mxGeometry x="1" relative="1" as="geometry" />
        </mxCell>
        <mxCell id="9y5jWuPjXUD0zxBHvWIc-70" value="TASK1" style="ellipse;whiteSpace=wrap;html=1;align=center;" vertex="1" parent="1">
          <mxGeometry x="267.5" y="-110" width="265" height="40" as="geometry" />
        </mxCell>
        <mxCell id="9y5jWuPjXUD0zxBHvWIc-71" value="TASK2" style="ellipse;whiteSpace=wrap;html=1;align=center;" vertex="1" parent="1">
          <mxGeometry x="215" y="610" width="370" height="40" as="geometry" />
        </mxCell>
        <mxCell id="9y5jWuPjXUD0zxBHvWIc-72" value="sales office" style="whiteSpace=wrap;html=1;align=center;" vertex="1" parent="1">
          <mxGeometry x="90" y="800" width="100" height="40" as="geometry" />
        </mxCell>
        <mxCell id="9y5jWuPjXUD0zxBHvWIc-73" value="property" style="whiteSpace=wrap;html=1;align=center;" vertex="1" parent="1">
          <mxGeometry x="80" y="1010" width="100" height="40" as="geometry" />
        </mxCell>
        <mxCell id="9y5jWuPjXUD0zxBHvWIc-74" value="employee" style="whiteSpace=wrap;html=1;align=center;" vertex="1" parent="1">
          <mxGeometry x="570" y="810" width="100" height="40" as="geometry" />
        </mxCell>
        <mxCell id="9y5jWuPjXUD0zxBHvWIc-75" value="owner" style="whiteSpace=wrap;html=1;align=center;" vertex="1" parent="1">
          <mxGeometry x="560" y="1010" width="100" height="40" as="geometry" />
        </mxCell>
        <mxCell id="9y5jWuPjXUD0zxBHvWIc-76" value="ID" style="ellipse;whiteSpace=wrap;html=1;align=center;" vertex="1" parent="1">
          <mxGeometry y="1100" width="100" height="40" as="geometry" />
        </mxCell>
        <mxCell id="9y5jWuPjXUD0zxBHvWIc-77" value="Location" style="ellipse;whiteSpace=wrap;html=1;align=center;fontStyle=4;" vertex="1" parent="1">
          <mxGeometry x="130" y="1120" width="100" height="30" as="geometry" />
        </mxCell>
        <mxCell id="9y5jWuPjXUD0zxBHvWIc-85" value="" style="endArrow=none;html=1;rounded=0;exitX=1;exitY=0.5;exitDx=0;exitDy=0;entryX=0.75;entryY=1;entryDx=0;entryDy=0;" edge="1" parent="1" source="9y5jWuPjXUD0zxBHvWIc-77" target="9y5jWuPjXUD0zxBHvWIc-73">
          <mxGeometry relative="1" as="geometry">
            <mxPoint x="340" y="1170" as="sourcePoint" />
            <mxPoint x="500" y="1170" as="targetPoint" />
          </mxGeometry>
        </mxCell>
        <mxCell id="9y5jWuPjXUD0zxBHvWIc-87" value="" style="endArrow=none;html=1;rounded=0;entryX=0.25;entryY=1;entryDx=0;entryDy=0;" edge="1" parent="1" source="9y5jWuPjXUD0zxBHvWIc-76" target="9y5jWuPjXUD0zxBHvWIc-73">
          <mxGeometry relative="1" as="geometry">
            <mxPoint x="340" y="1170" as="sourcePoint" />
            <mxPoint x="500" y="1170" as="targetPoint" />
          </mxGeometry>
        </mxCell>
        <mxCell id="9y5jWuPjXUD0zxBHvWIc-89" value="" style="endArrow=none;html=1;rounded=0;exitX=0.5;exitY=1;exitDx=0;exitDy=0;" edge="1" parent="1" source="9y5jWuPjXUD0zxBHvWIc-77" target="9y5jWuPjXUD0zxBHvWIc-95">
          <mxGeometry relative="1" as="geometry">
            <mxPoint x="340" y="1170" as="sourcePoint" />
            <mxPoint x="240" y="1250" as="targetPoint" />
          </mxGeometry>
        </mxCell>
        <mxCell id="9y5jWuPjXUD0zxBHvWIc-91" value="" style="endArrow=none;html=1;rounded=0;exitX=0.5;exitY=1;exitDx=0;exitDy=0;entryX=0.65;entryY=0;entryDx=0;entryDy=0;entryPerimeter=0;" edge="1" parent="1" source="9y5jWuPjXUD0zxBHvWIc-77" target="9y5jWuPjXUD0zxBHvWIc-93">
          <mxGeometry relative="1" as="geometry">
            <mxPoint x="340" y="1170" as="sourcePoint" />
            <mxPoint x="140" y="1210" as="targetPoint" />
          </mxGeometry>
        </mxCell>
        <mxCell id="9y5jWuPjXUD0zxBHvWIc-92" value="" style="endArrow=none;html=1;rounded=0;entryX=0.5;entryY=0;entryDx=0;entryDy=0;" edge="1" parent="1" target="9y5jWuPjXUD0zxBHvWIc-94">
          <mxGeometry relative="1" as="geometry">
            <mxPoint x="180" y="1150" as="sourcePoint" />
            <mxPoint x="290" y="1190" as="targetPoint" />
          </mxGeometry>
        </mxCell>
        <mxCell id="9y5jWuPjXUD0zxBHvWIc-93" value="Address" style="ellipse;whiteSpace=wrap;html=1;align=center;" vertex="1" parent="1">
          <mxGeometry x="60" y="1210" width="100" height="40" as="geometry" />
        </mxCell>
        <mxCell id="9y5jWuPjXUD0zxBHvWIc-94" value="State" style="ellipse;whiteSpace=wrap;html=1;align=center;" vertex="1" parent="1">
          <mxGeometry x="210" y="1220" width="100" height="40" as="geometry" />
        </mxCell>
        <mxCell id="9y5jWuPjXUD0zxBHvWIc-95" value="city" style="ellipse;whiteSpace=wrap;html=1;align=center;fontStyle=4;" vertex="1" parent="1">
          <mxGeometry x="150" y="1270" width="100" height="40" as="geometry" />
        </mxCell>
        <mxCell id="9y5jWuPjXUD0zxBHvWIc-97" value="location" style="ellipse;whiteSpace=wrap;html=1;align=center;" vertex="1" parent="1">
          <mxGeometry x="150" y="710" width="100" height="40" as="geometry" />
        </mxCell>
        <mxCell id="9y5jWuPjXUD0zxBHvWIc-98" value="" style="endArrow=none;html=1;rounded=0;exitX=0.5;exitY=0;exitDx=0;exitDy=0;entryX=0.5;entryY=1;entryDx=0;entryDy=0;" edge="1" parent="1" source="9y5jWuPjXUD0zxBHvWIc-72" target="9y5jWuPjXUD0zxBHvWIc-97">
          <mxGeometry relative="1" as="geometry">
            <mxPoint x="340" y="860" as="sourcePoint" />
            <mxPoint x="500" y="860" as="targetPoint" />
          </mxGeometry>
        </mxCell>
        <mxCell id="9y5jWuPjXUD0zxBHvWIc-99" value="" style="endArrow=none;html=1;rounded=0;exitX=0.68;exitY=1;exitDx=0;exitDy=0;exitPerimeter=0;" edge="1" parent="1" target="9y5jWuPjXUD0zxBHvWIc-72">
          <mxGeometry relative="1" as="geometry">
            <mxPoint x="68" y="760" as="sourcePoint" />
            <mxPoint x="500" y="860" as="targetPoint" />
          </mxGeometry>
        </mxCell>
        <mxCell id="9y5jWuPjXUD0zxBHvWIc-101" value="NAme" style="ellipse;whiteSpace=wrap;html=1;align=center;" vertex="1" parent="1">
          <mxGeometry x="640" y="710" width="100" height="40" as="geometry" />
        </mxCell>
        <mxCell id="9y5jWuPjXUD0zxBHvWIc-103" value="" style="endArrow=none;html=1;rounded=0;entryX=0.5;entryY=1;entryDx=0;entryDy=0;exitX=0.61;exitY=0.025;exitDx=0;exitDy=0;exitPerimeter=0;" edge="1" parent="1" source="9y5jWuPjXUD0zxBHvWIc-74">
          <mxGeometry relative="1" as="geometry">
            <mxPoint x="340" y="930" as="sourcePoint" />
            <mxPoint x="550" y="760" as="targetPoint" />
          </mxGeometry>
        </mxCell>
        <mxCell id="9y5jWuPjXUD0zxBHvWIc-104" value="" style="endArrow=none;html=1;rounded=0;entryX=0.3;entryY=1;entryDx=0;entryDy=0;entryPerimeter=0;" edge="1" parent="1" target="9y5jWuPjXUD0zxBHvWIc-101">
          <mxGeometry relative="1" as="geometry">
            <mxPoint x="630" y="810" as="sourcePoint" />
            <mxPoint x="500" y="930" as="targetPoint" />
          </mxGeometry>
        </mxCell>
        <mxCell id="9y5jWuPjXUD0zxBHvWIc-106" value="Name" style="ellipse;whiteSpace=wrap;html=1;align=center;" vertex="1" parent="1">
          <mxGeometry x="630" y="1110" width="100" height="40" as="geometry" />
        </mxCell>
        <mxCell id="9y5jWuPjXUD0zxBHvWIc-108" value="" style="endArrow=none;html=1;rounded=0;entryX=0.5;entryY=1;entryDx=0;entryDy=0;exitX=0;exitY=0;exitDx=0;exitDy=0;" edge="1" parent="1" source="9y5jWuPjXUD0zxBHvWIc-106" target="9y5jWuPjXUD0zxBHvWIc-75">
          <mxGeometry relative="1" as="geometry">
            <mxPoint x="340" y="1140" as="sourcePoint" />
            <mxPoint x="500" y="1140" as="targetPoint" />
          </mxGeometry>
        </mxCell>
        <mxCell id="9y5jWuPjXUD0zxBHvWIc-109" value="" style="endArrow=none;html=1;rounded=0;entryX=0.5;entryY=1;entryDx=0;entryDy=0;" edge="1" parent="1" target="9y5jWuPjXUD0zxBHvWIc-75">
          <mxGeometry relative="1" as="geometry">
            <mxPoint x="555.6436787467233" y="1116.0041043789784" as="sourcePoint" />
            <mxPoint x="500" y="1140" as="targetPoint" />
          </mxGeometry>
        </mxCell>
        <mxCell id="9y5jWuPjXUD0zxBHvWIc-110" value="assigned" style="shape=rhombus;perimeter=rhombusPerimeter;whiteSpace=wrap;html=1;align=center;" vertex="1" parent="1">
          <mxGeometry x="315" y="780" width="120" height="60" as="geometry" />
        </mxCell>
        <mxCell id="9y5jWuPjXUD0zxBHvWIc-111" value="manage" style="shape=rhombus;perimeter=rhombusPerimeter;whiteSpace=wrap;html=1;align=center;" vertex="1" parent="1">
          <mxGeometry x="315" y="900" width="120" height="60" as="geometry" />
        </mxCell>
        <mxCell id="9y5jWuPjXUD0zxBHvWIc-112" value="own" style="shape=rhombus;perimeter=rhombusPerimeter;whiteSpace=wrap;html=1;align=center;" vertex="1" parent="1">
          <mxGeometry x="315" y="1040" width="120" height="60" as="geometry" />
        </mxCell>
        <mxCell id="9y5jWuPjXUD0zxBHvWIc-113" value="listed" style="shape=rhombus;perimeter=rhombusPerimeter;whiteSpace=wrap;html=1;align=center;" vertex="1" parent="1">
          <mxGeometry x="70" y="900" width="120" height="60" as="geometry" />
        </mxCell>
        <mxCell id="9y5jWuPjXUD0zxBHvWIc-114" value="percent" style="ellipse;whiteSpace=wrap;html=1;align=center;" vertex="1" parent="1">
          <mxGeometry x="325" y="1150" width="100" height="40" as="geometry" />
        </mxCell>
        <mxCell id="9y5jWuPjXUD0zxBHvWIc-115" value="" style="endArrow=none;html=1;rounded=0;exitX=0.475;exitY=0.9;exitDx=0;exitDy=0;exitPerimeter=0;entryX=0.4;entryY=0.125;entryDx=0;entryDy=0;entryPerimeter=0;" edge="1" parent="1" source="9y5jWuPjXUD0zxBHvWIc-112" target="9y5jWuPjXUD0zxBHvWIc-114">
          <mxGeometry relative="1" as="geometry">
            <mxPoint x="340" y="1070" as="sourcePoint" />
            <mxPoint x="370" y="1150" as="targetPoint" />
          </mxGeometry>
        </mxCell>
        <mxCell id="9y5jWuPjXUD0zxBHvWIc-116" value="" style="endArrow=none;html=1;rounded=0;exitX=1;exitY=0.5;exitDx=0;exitDy=0;entryX=0;entryY=0.75;entryDx=0;entryDy=0;" edge="1" parent="1" source="9y5jWuPjXUD0zxBHvWIc-112" target="9y5jWuPjXUD0zxBHvWIc-75">
          <mxGeometry relative="1" as="geometry">
            <mxPoint x="340" y="980" as="sourcePoint" />
            <mxPoint x="500" y="980" as="targetPoint" />
          </mxGeometry>
        </mxCell>
        <mxCell id="9y5jWuPjXUD0zxBHvWIc-117" value="M" style="resizable=0;html=1;whiteSpace=wrap;align=left;verticalAlign=bottom;" connectable="0" vertex="1" parent="9y5jWuPjXUD0zxBHvWIc-116">
          <mxGeometry x="-1" relative="1" as="geometry" />
        </mxCell>
        <mxCell id="9y5jWuPjXUD0zxBHvWIc-118" value="N" style="resizable=0;html=1;whiteSpace=wrap;align=right;verticalAlign=bottom;" connectable="0" vertex="1" parent="9y5jWuPjXUD0zxBHvWIc-116">
          <mxGeometry x="1" relative="1" as="geometry" />
        </mxCell>
        <mxCell id="9y5jWuPjXUD0zxBHvWIc-119" value="" style="endArrow=none;html=1;rounded=0;exitX=1;exitY=0.25;exitDx=0;exitDy=0;" edge="1" parent="1" source="9y5jWuPjXUD0zxBHvWIc-73" target="9y5jWuPjXUD0zxBHvWIc-112">
          <mxGeometry relative="1" as="geometry">
            <mxPoint x="340" y="980" as="sourcePoint" />
            <mxPoint x="500" y="980" as="targetPoint" />
          </mxGeometry>
        </mxCell>
        <mxCell id="9y5jWuPjXUD0zxBHvWIc-120" value="M" style="resizable=0;html=1;whiteSpace=wrap;align=left;verticalAlign=bottom;" connectable="0" vertex="1" parent="9y5jWuPjXUD0zxBHvWIc-119">
          <mxGeometry x="-1" relative="1" as="geometry" />
        </mxCell>
        <mxCell id="9y5jWuPjXUD0zxBHvWIc-121" value="N" style="resizable=0;html=1;whiteSpace=wrap;align=right;verticalAlign=bottom;" connectable="0" vertex="1" parent="9y5jWuPjXUD0zxBHvWIc-119">
          <mxGeometry x="1" relative="1" as="geometry" />
        </mxCell>
        <mxCell id="9y5jWuPjXUD0zxBHvWIc-122" value="" style="endArrow=none;html=1;rounded=0;entryX=0;entryY=0.75;entryDx=0;entryDy=0;exitX=0.867;exitY=0.383;exitDx=0;exitDy=0;exitPerimeter=0;" edge="1" parent="1" source="9y5jWuPjXUD0zxBHvWIc-111" target="9y5jWuPjXUD0zxBHvWIc-74">
          <mxGeometry relative="1" as="geometry">
            <mxPoint x="340" y="980" as="sourcePoint" />
            <mxPoint x="500" y="980" as="targetPoint" />
          </mxGeometry>
        </mxCell>
        <mxCell id="9y5jWuPjXUD0zxBHvWIc-123" value="1" style="resizable=0;html=1;whiteSpace=wrap;align=right;verticalAlign=bottom;" connectable="0" vertex="1" parent="9y5jWuPjXUD0zxBHvWIc-122">
          <mxGeometry x="1" relative="1" as="geometry" />
        </mxCell>
        <mxCell id="9y5jWuPjXUD0zxBHvWIc-124" value="" style="endArrow=none;html=1;rounded=0;exitX=0.41;exitY=1.05;exitDx=0;exitDy=0;exitPerimeter=0;entryX=0.508;entryY=0.167;entryDx=0;entryDy=0;entryPerimeter=0;" edge="1" parent="1" source="9y5jWuPjXUD0zxBHvWIc-72" target="9y5jWuPjXUD0zxBHvWIc-113">
          <mxGeometry relative="1" as="geometry">
            <mxPoint x="340" y="980" as="sourcePoint" />
            <mxPoint x="500" y="980" as="targetPoint" />
          </mxGeometry>
        </mxCell>
        <mxCell id="9y5jWuPjXUD0zxBHvWIc-125" value="1" style="resizable=0;html=1;whiteSpace=wrap;align=right;verticalAlign=bottom;" connectable="0" vertex="1" parent="9y5jWuPjXUD0zxBHvWIc-124">
          <mxGeometry x="1" relative="1" as="geometry" />
        </mxCell>
        <mxCell id="9y5jWuPjXUD0zxBHvWIc-126" value="" style="shape=link;html=1;rounded=0;exitX=0.5;exitY=1;exitDx=0;exitDy=0;entryX=0.5;entryY=0;entryDx=0;entryDy=0;" edge="1" parent="1" source="9y5jWuPjXUD0zxBHvWIc-113" target="9y5jWuPjXUD0zxBHvWIc-73">
          <mxGeometry relative="1" as="geometry">
            <mxPoint x="340" y="980" as="sourcePoint" />
            <mxPoint x="500" y="980" as="targetPoint" />
          </mxGeometry>
        </mxCell>
        <mxCell id="9y5jWuPjXUD0zxBHvWIc-131" value="" style="shape=link;html=1;rounded=0;entryX=0;entryY=0.5;entryDx=0;entryDy=0;exitX=1;exitY=0.5;exitDx=0;exitDy=0;" edge="1" parent="1" source="9y5jWuPjXUD0zxBHvWIc-72" target="9y5jWuPjXUD0zxBHvWIc-110">
          <mxGeometry relative="1" as="geometry">
            <mxPoint x="340" y="980" as="sourcePoint" />
            <mxPoint x="500" y="980" as="targetPoint" />
          </mxGeometry>
        </mxCell>
        <mxCell id="9y5jWuPjXUD0zxBHvWIc-132" value="1" style="resizable=0;html=1;whiteSpace=wrap;align=right;verticalAlign=bottom;" connectable="0" vertex="1" parent="9y5jWuPjXUD0zxBHvWIc-131">
          <mxGeometry x="1" relative="1" as="geometry" />
        </mxCell>
        <mxCell id="9y5jWuPjXUD0zxBHvWIc-133" value="" style="shape=link;html=1;rounded=0;exitX=1;exitY=1;exitDx=0;exitDy=0;entryX=0.083;entryY=0.55;entryDx=0;entryDy=0;entryPerimeter=0;" edge="1" parent="1" source="9y5jWuPjXUD0zxBHvWIc-72" target="9y5jWuPjXUD0zxBHvWIc-111">
          <mxGeometry relative="1" as="geometry">
            <mxPoint x="340" y="980" as="sourcePoint" />
            <mxPoint x="500" y="980" as="targetPoint" />
          </mxGeometry>
        </mxCell>
        <mxCell id="9y5jWuPjXUD0zxBHvWIc-134" value="1" style="resizable=0;html=1;whiteSpace=wrap;align=right;verticalAlign=bottom;" connectable="0" vertex="1" parent="9y5jWuPjXUD0zxBHvWIc-133">
          <mxGeometry x="1" relative="1" as="geometry" />
        </mxCell>
        <mxCell id="9y5jWuPjXUD0zxBHvWIc-135" value="" style="shape=link;html=1;rounded=0;entryX=0;entryY=0.25;entryDx=0;entryDy=0;exitX=0.917;exitY=0.5;exitDx=0;exitDy=0;exitPerimeter=0;" edge="1" parent="1" source="9y5jWuPjXUD0zxBHvWIc-110" target="9y5jWuPjXUD0zxBHvWIc-74">
          <mxGeometry relative="1" as="geometry">
            <mxPoint x="340" y="980" as="sourcePoint" />
            <mxPoint x="500" y="980" as="targetPoint" />
          </mxGeometry>
        </mxCell>
        <mxCell id="9y5jWuPjXUD0zxBHvWIc-136" value="M" style="resizable=0;html=1;whiteSpace=wrap;align=left;verticalAlign=bottom;" connectable="0" vertex="1" parent="9y5jWuPjXUD0zxBHvWIc-135">
          <mxGeometry x="-1" relative="1" as="geometry" />
        </mxCell>
        <mxCell id="9y5jWuPjXUD0zxBHvWIc-137" value="N" style="resizable=0;html=1;whiteSpace=wrap;align=right;verticalAlign=bottom;" connectable="0" vertex="1" parent="9y5jWuPjXUD0zxBHvWIc-135">
          <mxGeometry x="1" relative="1" as="geometry" />
        </mxCell>
        <mxCell id="9y5jWuPjXUD0zxBHvWIc-138" value="ID" style="ellipse;whiteSpace=wrap;html=1;align=center;fontStyle=4;" vertex="1" parent="1">
          <mxGeometry x="500" y="1115" width="100" height="40" as="geometry" />
        </mxCell>
        <mxCell id="9y5jWuPjXUD0zxBHvWIc-140" value="ID" style="ellipse;whiteSpace=wrap;html=1;align=center;fontStyle=4;" vertex="1" parent="1">
          <mxGeometry x="500" y="720" width="100" height="40" as="geometry" />
        </mxCell>
        <mxCell id="9y5jWuPjXUD0zxBHvWIc-141" value="NUM" style="ellipse;whiteSpace=wrap;html=1;align=center;fontStyle=4;" vertex="1" parent="1">
          <mxGeometry x="20" y="720" width="100" height="40" as="geometry" />
        </mxCell>
        <mxCell id="9y5jWuPjXUD0zxBHvWIc-142" value="" style="endArrow=none;html=1;rounded=0;" edge="1" parent="1">
          <mxGeometry relative="1" as="geometry">
            <mxPoint y="680" as="sourcePoint" />
            <mxPoint x="840" y="680" as="targetPoint" />
          </mxGeometry>
        </mxCell>
        <mxCell id="9y5jWuPjXUD0zxBHvWIc-143" value="" style="endArrow=none;html=1;rounded=0;" edge="1" parent="1">
          <mxGeometry relative="1" as="geometry">
            <mxPoint y="560" as="sourcePoint" />
            <mxPoint x="840" y="560" as="targetPoint" />
          </mxGeometry>
        </mxCell>
        <mxCell id="9y5jWuPjXUD0zxBHvWIc-144" value="" style="endArrow=none;html=1;rounded=0;" edge="1" parent="1">
          <mxGeometry relative="1" as="geometry">
            <mxPoint y="-40" as="sourcePoint" />
            <mxPoint x="840" y="-40" as="targetPoint" />
          </mxGeometry>
        </mxCell>
      </root>
    </mxGraphModel>
  </diagram>
</mxfile>
